<?xml version="1.0" standalone="no"?>
<!DOCTYPE svg PUBLIC "-//W3C//DTD SVG 20010904//EN"
 "http://www.w3.org/TR/2001/REC-SVG-20010904/DTD/svg10.dtd">
<svg version="1.0" xmlns="http://www.w3.org/2000/svg"
 width="453.000000pt" height="453.000000pt" viewBox="0 0 453.000000 453.000000"
 preserveAspectRatio="xMidYMid meet">
<metadata>
Created by potrace 1.14, written by Peter Selinger 2001-2017
</metadata>
<g transform="translate(0.000000,453.000000) scale(0.100000,-0.100000)"
fill="#000000" stroke="none">
<path d="M2107 4374 c-1 -1 -38 -4 -82 -8 -44 -3 -89 -8 -100 -10 -11 -2 -42
-7 -68 -10 -27 -4 -57 -9 -68 -12 -10 -2 -29 -6 -41 -9 -13 -3 -35 -7 -49 -10
-37 -7 -238 -73 -276 -90 -17 -8 -34 -15 -37 -15 -3 0 -36 -14 -73 -32 -364
-172 -689 -461 -900 -801 -143 -232 -261 -553 -289 -789 -3 -29 -10 -75 -14
-103 -9 -55 -5 -419 5 -475 3 -19 10 -60 15 -90 69 -418 260 -793 569 -1114
255 -264 621 -479 956 -562 224 -55 329 -68 545 -68 124 0 296 10 310 19 3 2
28 6 55 9 28 4 100 19 161 35 633 167 1139 602 1408 1211 74 167 134 396 152
575 3 33 7 76 10 95 6 50 6 281 -1 326 -2 22 -7 58 -10 82 -52 459 -268 897
-604 1232 -64 63 -143 135 -176 160 -33 25 -62 47 -65 50 -9 10 -142 95 -205
131 -245 142 -554 239 -845 265 -66 6 -278 12 -283 8z"/>
</g>
</svg>
